<svg width="34" height="34" viewBox="0 0 34 34" fill="none" xmlns="http://www.w3.org/2000/svg">
    <path d="M15.5835 2.83325H12.7502C5.66683 2.83325 2.8335 5.66659 2.8335 12.7499V21.2499C2.8335 28.3333 5.66683 31.1666 12.7502 31.1666H21.2502C28.3335 31.1666 31.1668 28.3333 31.1668 21.2499V18.4166"
          stroke="#5A5A5A" stroke-width="1.5" stroke-linecap="round" stroke-linejoin="round"/>
    <path d="M22.7232 4.27845L11.5598 15.4418C11.1348 15.8668 10.7098 16.7026 10.6248 17.3118L10.0157 21.5759C9.789 23.1201 10.8798 24.1968 12.424 23.9843L16.6882 23.3751C17.2832 23.2901 18.119 22.8651 18.5582 22.4401L29.7215 11.2768C31.6482 9.35011 32.5548 7.11178 29.7215 4.27845C26.8882 1.44511 24.6498 2.35178 22.7232 4.27845V4.27845Z"
          stroke="#5A5A5A" stroke-width="1.5" stroke-miterlimit="10" stroke-linecap="round"
          stroke-linejoin="round"/>
    <path d="M21.1226 5.87915C21.5923 7.54723 22.4825 9.06674 23.7079 10.2921C24.9333 11.5175 26.4528 12.4077 28.1209 12.8775"
          stroke="#5A5A5A" stroke-width="1.5" stroke-miterlimit="10" stroke-linecap="round"
          stroke-linejoin="round"/>
</svg>