<svg width="30" height="30" viewBox="0 0 30 30" fill="none" xmlns="http://www.w3.org/2000/svg">
    <path d="M9.3501 22.9376L13.2251 25.9376C13.7251 26.4376 14.8501 26.6876 15.6001 26.6876H20.3501C21.8501 26.6876 23.4751 25.5626 23.8501 24.0626L26.8501 14.9376C27.4751 13.1876 26.3501 11.6876 24.4751 11.6876H19.4751C18.7251 11.6876 18.1001 11.0626 18.2251 10.1876L18.8501 6.18758C19.1001 5.06258 18.3501 3.81258 17.2251 3.43758C16.2251 3.06258 14.9751 3.56258 14.4751 4.31258L9.3501 11.9376" stroke="#5A5A5A" stroke-width="1.5" stroke-miterlimit="10"/>
    <path d="M2.9751 22.9375V10.6875C2.9751 8.9375 3.7251 8.3125 5.4751 8.3125H6.7251C8.4751 8.3125 9.2251 8.9375 9.2251 10.6875V22.9375C9.2251 24.6875 8.4751 25.3125 6.7251 25.3125H5.4751C3.7251 25.3125 2.9751 24.6875 2.9751 22.9375Z" stroke="#5A5A5A" stroke-width="1.5" stroke-linecap="round" stroke-linejoin="round"/>
</svg>