<svg width="36" height="36" viewBox="0 0 36 36" fill="none" xmlns="http://www.w3.org/2000/svg">
    <path d="M6.00001 11.9999H4.50001M31.5 11.9999H30M23.265 4.24194H12.735C9.00001 4.24194 8.17501 6.10194 7.69501 8.38194L6.00001 16.4969H30L28.305 8.38194C27.825 6.10194 27 4.24194 23.265 4.24194V4.24194ZM32.9835 29.7299C33.1485 31.4849 31.7385 32.9999 29.9385 32.9999H27.1185C25.4985 32.9999 25.2735 32.3099 24.9885 31.4549L24.6885 30.5549C24.2685 29.3249 23.9985 28.4999 21.8385 28.4999H14.1585C11.9985 28.4999 11.6835 29.4299 11.3085 30.5549L11.0085 31.4549C10.7235 32.3099 10.4985 32.9999 8.87851 32.9999H6.05851C4.25851 32.9999 2.84851 31.4849 3.01351 29.7299L3.85351 20.5949C4.06351 18.3449 4.49851 16.4999 8.42851 16.4999H27.5685C31.4985 16.4999 31.9335 18.3449 32.1435 20.5949L32.9835 29.7299V29.7299Z"
          stroke="white" stroke-width="2.5" stroke-linecap="round" stroke-linejoin="round"/>
    <g opacity="0.4">
        <path d="M18 4.5V7.5M15.75 7.5H20.25" stroke="white" stroke-width="1.5"
              stroke-linecap="round" stroke-linejoin="round"/>
    </g>
    <path opacity="0.4" d="M9 22.5H13.5M22.5 22.5H27" stroke="white" stroke-width="2.5"
          stroke-linecap="round" stroke-linejoin="round"/>
</svg>