<svg width="35" height="35" viewBox="0 0 35 35" fill="none" xmlns="http://www.w3.org/2000/svg">
    <path d="M13.1248 32.0833H21.8748C29.1665 32.0833 32.0832 29.1667 32.0832 21.875V13.125C32.0832 5.83332 29.1665 2.91666 21.8748 2.91666H13.1248C5.83317 2.91666 2.9165 5.83332 2.9165 13.125V21.875C2.9165 29.1667 5.83317 32.0833 13.1248 32.0833Z" stroke="white" stroke-width="1.5" stroke-linecap="round" stroke-linejoin="round"/>
    <path d="M3.89355 27.6354L11.0831 22.8083C12.2352 22.0354 13.8977 22.1229 14.9331 23.0125L15.4144 23.4354C16.5519 24.4125 18.3894 24.4125 19.5269 23.4354L25.5936 18.2292C26.7311 17.2521 28.5686 17.2521 29.7061 18.2292L32.0831 20.2708M13.1248 14.5833C13.8984 14.5833 14.6402 14.276 15.1872 13.7291C15.7342 13.1821 16.0415 12.4402 16.0415 11.6667C16.0415 10.8931 15.7342 10.1513 15.1872 9.60427C14.6402 9.05729 13.8984 8.75 13.1248 8.75C12.3513 8.75 11.6094 9.05729 11.0624 9.60427C10.5154 10.1513 10.2081 10.8931 10.2081 11.6667C10.2081 12.4402 10.5154 13.1821 11.0624 13.7291C11.6094 14.276 12.3513 14.5833 13.1248 14.5833Z" stroke="white" stroke-width="1.5" stroke-linecap="round" stroke-linejoin="round"/>
</svg>
