<svg width="35" height="35" viewBox="0 0 35 35" fill="none" xmlns="http://www.w3.org/2000/svg">
    <path d="M23.9314 5.83334C26.7605 5.83334 29.0355 8.12292 29.0355 10.9375C29.0355 13.6938 26.848 15.9396 24.121 16.0417C23.995 16.0271 23.8678 16.0271 23.7418 16.0417M26.746 29.1667C27.796 28.9479 28.7876 28.525 29.6043 27.8979C31.8793 26.1917 31.8793 23.3771 29.6043 21.6708C28.8022 21.0583 27.8251 20.65 26.7897 20.4167M13.3585 15.8521C13.2126 15.8375 13.0376 15.8375 12.8772 15.8521C11.2033 15.7953 9.61732 15.0891 8.45501 13.8833C7.2927 12.6774 6.64538 11.0665 6.65013 9.39167C6.65013 5.81876 9.53763 2.91667 13.1251 2.91667C14.8405 2.88573 16.4979 3.53747 17.7327 4.72852C18.9675 5.91958 19.6786 7.55237 19.7095 9.26771C19.7404 10.9831 19.0887 12.6404 17.8977 13.8752C16.7066 15.1101 15.0738 15.8211 13.3585 15.8521ZM6.0668 21.2333C2.53763 23.5958 2.53763 27.4458 6.0668 29.7938C10.0772 32.4771 16.6543 32.4771 20.6647 29.7938C24.1939 27.4313 24.1939 23.5813 20.6647 21.2333C16.6689 18.5646 10.0918 18.5646 6.0668 21.2333V21.2333Z" stroke="white" stroke-width="1.5" stroke-linecap="round" stroke-linejoin="round"/>
</svg>
