<svg width="35" height="35" viewBox="0 0 35 35" fill="none" xmlns="http://www.w3.org/2000/svg">
    <path d="M17.6751 18.6375C17.5589 18.6229 17.4413 18.6229 17.3251 18.6375C16.0883 18.5959 14.9162 18.0751 14.0563 17.1853C13.1964 16.2955 12.716 15.1062 12.7167 13.8688C12.7167 11.2292 14.8459 9.08543 17.5001 9.08543C18.7534 9.08325 19.9574 9.57369 20.8525 10.451C21.7476 11.3283 22.2621 12.5223 22.2851 13.7754C22.308 15.0285 21.8376 16.2405 20.9752 17.15C20.1129 18.0596 18.9277 18.5938 17.6751 18.6375V18.6375ZM27.3292 28.2625C24.6492 30.7257 21.1401 32.0898 17.5001 32.0833C13.7084 32.0833 10.2667 30.6396 7.6709 28.2625C7.81673 26.8917 8.69173 25.55 10.2521 24.5C14.248 21.8458 20.7813 21.8458 24.748 24.5C26.3084 25.55 27.1834 26.8917 27.3292 28.2625V28.2625Z" stroke="white" stroke-width="1.5" stroke-linecap="round" stroke-linejoin="round"/>
    <path d="M17.4998 32.0833C25.5542 32.0833 32.0832 25.5544 32.0832 17.5C32.0832 9.44562 25.5542 2.91666 17.4998 2.91666C9.44546 2.91666 2.9165 9.44562 2.9165 17.5C2.9165 25.5544 9.44546 32.0833 17.4998 32.0833Z" stroke="white" stroke-width="1.5" stroke-linecap="round" stroke-linejoin="round"/>
</svg>
