<svg width="35" height="35" viewBox="0 0 35 35" fill="none" xmlns="http://www.w3.org/2000/svg">
    <path d="M17.5 21.875C18.6603 21.875 19.7731 21.4141 20.5936 20.5936C21.4141 19.7731 21.875 18.6603 21.875 17.5C21.875 16.3397 21.4141 15.2269 20.5936 14.4064C19.7731 13.5859 18.6603 13.125 17.5 13.125C16.3397 13.125 15.2269 13.5859 14.4064 14.4064C13.5859 15.2269 13.125 16.3397 13.125 17.5C13.125 18.6603 13.5859 19.7731 14.4064 20.5936C15.2269 21.4141 16.3397 21.875 17.5 21.875V21.875Z" stroke="white" stroke-width="1.5" stroke-miterlimit="10" stroke-linecap="round" stroke-linejoin="round"/>
    <path d="M2.9165 18.7833V16.2167C2.9165 14.7 4.15609 13.4458 5.68734 13.4458C8.32692 13.4458 9.40609 11.5792 8.079 9.28957C7.32067 7.97707 7.77275 6.27082 9.09984 5.51249L11.6228 4.06874C12.7748 3.38332 14.2623 3.79166 14.9478 4.94374L15.1082 5.22082C16.4207 7.51041 18.579 7.51041 19.9061 5.22082L20.0665 4.94374C20.7519 3.79166 22.2394 3.38332 23.3915 4.06874L25.9144 5.51249C27.2415 6.27082 27.6936 7.97707 26.9353 9.28957C25.6082 11.5792 26.6873 13.4458 29.3269 13.4458C30.8436 13.4458 32.0978 14.6854 32.0978 16.2167V18.7833C32.0978 20.3 30.8582 21.5542 29.3269 21.5542C26.6873 21.5542 25.6082 23.4208 26.9353 25.7104C27.6936 27.0375 27.2415 28.7292 25.9144 29.4875L23.3915 30.9312C22.2394 31.6167 20.7519 31.2083 20.0665 30.0562L19.9061 29.7792C18.5936 27.4896 16.4353 27.4896 15.1082 29.7792L14.9478 30.0562C14.2623 31.2083 12.7748 31.6167 11.6228 30.9312L9.09984 29.4875C8.46415 29.1215 7.99964 28.5182 7.80826 27.8101C7.61687 27.1019 7.71424 26.3468 8.079 25.7104C9.40609 23.4208 8.32692 21.5542 5.68734 21.5542C4.15609 21.5542 2.9165 20.3 2.9165 18.7833V18.7833Z" stroke="white" stroke-width="1.5" stroke-miterlimit="10" stroke-linecap="round" stroke-linejoin="round"/>
</svg>
